<?xml version="1.0" encoding="UTF-8"?>
<svg version="1.1" xmlns="http://www.w3.org/2000/svg" width="588" height="441">
<path d="M0 0 C194.04 0 388.08 0 588 0 C588 145.53 588 291.06 588 441 C393.96 441 199.92 441 0 441 C0 295.47 0 149.94 0 0 Z " fill="#FEFEFE" transform="translate(0,0)"/>
<path d="M0 0 C3.73536383 3.04077138 6.42701512 5.87400359 7.05615234 10.82568359 C7.10539377 13.52231357 7.13693032 16.21694952 7.140625 18.9140625 C7.16511719 19.84734375 7.18960938 20.780625 7.21484375 21.7421875 C7.23936441 27.51271642 6.75865154 31.05039804 2.765625 35.5390625 C0.6953125 37.18359375 0.6953125 37.18359375 -1.359375 38.3515625 C-2.04257813 38.74988281 -2.72578125 39.14820313 -3.4296875 39.55859375 C-7.63850695 41.84520345 -10.43655858 41.61644664 -15.234375 41.5390625 C-15.234375 43.5190625 -15.234375 45.4990625 -15.234375 47.5390625 C-5.994375 47.5390625 3.245625 47.5390625 12.765625 47.5390625 C12.765625 67.3390625 12.765625 87.1390625 12.765625 107.5390625 C9.135625 107.5390625 5.505625 107.5390625 1.765625 107.5390625 C1.765625 113.4790625 1.765625 119.4190625 1.765625 125.5390625 C-2.194375 126.5290625 -2.194375 126.5290625 -6.234375 127.5390625 C-6.234375 120.9390625 -6.234375 114.3390625 -6.234375 107.5390625 C-15.804375 107.5390625 -25.374375 107.5390625 -35.234375 107.5390625 C-35.234375 114.1390625 -35.234375 120.7390625 -35.234375 127.5390625 C-42.234375 126.5390625 -42.234375 126.5390625 -43.234375 125.5390625 C-43.32069374 124.19638837 -43.34143973 122.84931928 -43.33203125 121.50390625 C-43.32880859 120.69501953 -43.32558594 119.88613281 -43.32226562 119.05273438 C-43.31388672 118.20259766 -43.30550781 117.35246094 -43.296875 116.4765625 C-43.29236328 115.62255859 -43.28785156 114.76855469 -43.28320312 113.88867188 C-43.27137873 111.77210587 -43.25344269 109.65557565 -43.234375 107.5390625 C-46.534375 107.5390625 -49.834375 107.5390625 -53.234375 107.5390625 C-53.234375 87.7390625 -53.234375 67.9390625 -53.234375 47.5390625 C-44.324375 47.5390625 -35.414375 47.5390625 -26.234375 47.5390625 C-26.234375 45.8890625 -26.234375 44.2390625 -26.234375 42.5390625 C-27.389375 42.4565625 -28.544375 42.3740625 -29.734375 42.2890625 C-35.91635965 41.4903282 -41.0507692 39.23715023 -45.171875 34.4765625 C-48.68815604 29.46852586 -48.47984821 25.17848311 -48.546875 19.2890625 C-48.57587891 18.45503906 -48.60488281 17.62101562 -48.63476562 16.76171875 C-48.69555673 10.80419073 -47.66401004 7.43133601 -44.234375 2.5390625 C-32.92206115 -8.46751314 -12.79845778 -8.36822239 0 0 Z " fill="#1E3C8D" transform="translate(114.234375,176.4609375)"/>
<path d="M0 0 C0.66 0.66 1.32 1.32 2 2 C1.360625 2.4125 0.72125 2.825 0.0625 3.25 C-2.26602984 5.22572229 -2.54132928 6.06450741 -3 9 C-3.33 9.99 -3.66 10.98 -4 12 C-5.65 12 -7.3 12 -9 12 C-7.83524938 13.37771762 -7.83524938 13.37771762 -4.625 13.3125 C-1 14 -1 14 1 15.75 C2.31365275 18.70571868 2.13114585 19.98361106 1 23 C-0.625 25.3125 -0.625 25.3125 -3 27 C-6.5 27.5625 -6.5 27.5625 -10 27 C-13.85146028 23.5649138 -14.8568494 19.85839006 -16 15 C-16.66 15 -17.32 15 -18 15 C-18 15.66 -18 16.32 -18 17 C-18.99 17 -19.98 17 -21 17 C-20.67 19.97 -20.34 22.94 -20 26 C-23.88862887 27.94431443 -25.08207159 28.21410371 -29.1875 28.0625 C-30.79089307 28.0085058 -32.39582845 27.97954608 -34 28 C-35.51289964 29.51289964 -36.20684947 31.01712367 -37 33 C-36.69898137 36.31120491 -35.47141532 37.8509432 -33 40 C-33.33 40.66 -33.66 41.32 -34 42 C-39.72980117 39.02491093 -43.85898965 36.42303105 -46 30 C-46.27608459 26.92156158 -46.27733898 23.83948198 -46.3125 20.75 C-46.34150391 19.91597656 -46.37050781 19.08195312 -46.40039062 18.22265625 C-46.46118173 12.26512823 -45.42963504 8.89227351 -42 4 C-30.82805626 -6.86999932 -13.32920784 -6.03669909 0 0 Z " fill="#1E3C8D" transform="translate(112,175)"/>
<path d="M0 0 C13.79464286 -1.20535714 13.79464286 -1.20535714 19.375 3.125 C24.9006952 9.51504976 24.00314994 18.1208312 23.70703125 26.11328125 C23.39435246 29.67123673 23.18758451 30.75596149 20.94921875 33.66796875 C20.30597656 34.10753906 19.66273438 34.54710937 19 35 C20.15173355 37.46800047 21.04783565 39.04783565 23 41 C24.41428809 48.65505804 25.34957969 59.78463169 21.22265625 66.6796875 C17.62449929 70.70355833 14.81613045 72.70495356 9.44140625 73.578125 C5.875 73.625 5.875 73.625 0 73 C0 68.38 0 63.76 0 59 C4.455 58.505 4.455 58.505 9 58 C9.08114106 56.22992286 9.13925505 54.45877902 9.1875 52.6875 C9.22230469 51.70136719 9.25710938 50.71523437 9.29296875 49.69921875 C9.20411654 47.03042059 9.20411654 47.03042059 7.86328125 45.20703125 C5.51411467 43.50964128 5.51411467 43.50964128 0 43 C0 38.71 0 34.42 0 30 C1.11375 29.71125 2.2275 29.4225 3.375 29.125 C7.00291092 28.30758671 7.00291092 28.30758671 9 26 C9.28129466 23.3656065 9.28129466 23.3656065 9.1875 20.4375 C9.18105469 19.44621094 9.17460937 18.45492187 9.16796875 17.43359375 C9.27125434 15.05234128 9.27125434 15.05234128 8 14 C6.65252916 13.76924918 5.29622435 13.58846937 3.9375 13.4375 C2.638125 13.293125 1.33875 13.14875 0 13 C0 8.71 0 4.42 0 0 Z " fill="#1F3D8D" transform="translate(295,195)"/>
<path d="M0 0 C2.30698892 -0.2462004 4.62184991 -0.41905265 6.9375 -0.5625 C8.22527344 -0.66691406 9.51304687 -0.77132812 10.83984375 -0.87890625 C15.87629345 -0.40406889 18.90609715 2.53612628 22.21801758 6.15454102 C25.51775915 11.42354882 25.14344542 16.70670435 24.875 22.75 C24.87693359 24.55791016 24.87693359 24.55791016 24.87890625 26.40234375 C24.72788158 33.56409258 24.11194922 35.93968663 19 41 C19.03983471 44.48792723 20.03350318 47.66708673 21 51 C21.43400098 52.75935822 21.8637219 54.51977801 22.2890625 56.28125 C22.73192967 58.02145748 23.17724481 59.76104379 23.625 61.5 C24.07768135 63.25986234 24.52830913 65.02025461 24.9765625 66.78125 C25.17330566 67.54501953 25.37004883 68.30878906 25.57275391 69.09570312 C26 71 26 71 26 73 C21.38 73 16.76 73 12 73 C10.9957116 69.06354814 9.99639422 65.12595014 9 61.1875 C8.71382812 60.06794922 8.42765625 58.94839844 8.1328125 57.79492188 C7.86210937 56.72177734 7.59140625 55.64863281 7.3125 54.54296875 C7.06113281 53.55321045 6.80976563 52.56345215 6.55078125 51.54370117 C6 49 6 49 6 46 C4.02 46 2.04 46 0 46 C0 41.71 0 37.42 0 33 C1.464375 32.855625 2.92875 32.71125 4.4375 32.5625 C7.51846698 32.46504174 7.51846698 32.46504174 10 31 C10.09981214 28.3226862 10.13879875 25.67695825 10.125 23 C10.12886719 22.24976563 10.13273438 21.49953125 10.13671875 20.7265625 C10.47675541 17.06393883 10.47675541 17.06393883 9 14 C6.01110641 13.54234333 3.01030352 13.29679049 0 13 C0 8.71 0 4.42 0 0 Z " fill="#1E3C8C" transform="translate(193,195)"/>
<path d="M0 0 C0 4.29 0 8.58 0 13 C-1.98 13.66 -3.96 14.32 -6 15 C-6 29.19 -6 43.38 -6 58 C-4.02 58.33 -2.04 58.66 0 59 C0 63.62 0 68.24 0 73 C-4.92188391 73.70312627 -8.1812145 73.87608407 -12.69287109 71.70288086 C-18.05741435 67.4401752 -20.14172227 63.98743647 -20.96435547 57.25976562 C-21.39345429 51.39321178 -21.40466592 45.54777566 -21.30371094 39.66870117 C-21.25005074 35.94102452 -21.30329219 32.22535549 -21.3671875 28.49804688 C-21.36057968 26.11195279 -21.34776789 23.72586613 -21.328125 21.33984375 C-21.34836731 20.23648178 -21.36860962 19.13311981 -21.38946533 17.99632263 C-21.19504589 11.53144143 -20.01457601 8.28371734 -15.26855469 3.76391602 C-10.08135564 -0.6097787 -6.61523152 -0.85052977 0 0 Z " fill="#23418F" transform="translate(246,195)"/>
<path d="M0 0 C8.34695299 -1.05806446 8.34695299 -1.05806446 12.46994019 1.58093262 C16.87327972 5.72444215 19.52118773 8.79130491 20.16455078 14.92773438 C20.22336627 17.1489847 20.23118347 19.37201069 20.1953125 21.59375 C20.20392303 22.78045288 20.21253357 23.96715576 20.22140503 25.18981934 C20.22750315 27.68762532 20.21107855 30.18557715 20.17333984 32.68310547 C20.125111 36.49123536 20.17293075 40.2898208 20.23046875 44.09765625 C20.22452099 46.53387509 20.21298892 48.97008803 20.1953125 51.40625 C20.22263962 53.0988092 20.22263962 53.0988092 20.2505188 54.82556152 C20.08418475 61.1074029 19.14007301 64.60347274 14.77294922 69.25195312 C11.34852494 72.47431074 9.15201127 73.54227611 4.4375 73.5625 C2.973125 73.376875 1.50875 73.19125 0 73 C0 68.38 0 63.76 0 59 C2.475 58.505 2.475 58.505 5 58 C5 43.48 5 28.96 5 14 C3.35 13.67 1.7 13.34 0 13 C0 8.71 0 4.42 0 0 Z " fill="#1E3C8D" transform="translate(250,195)"/>
<path d="M0 0 C8.34695299 -1.05806446 8.34695299 -1.05806446 12.46994019 1.58093262 C16.87327972 5.72444215 19.52118773 8.79130491 20.16455078 14.92773438 C20.22336627 17.1489847 20.23118347 19.37201069 20.1953125 21.59375 C20.20392303 22.78045288 20.21253357 23.96715576 20.22140503 25.18981934 C20.22750315 27.68762532 20.21107855 30.18557715 20.17333984 32.68310547 C20.125111 36.49123536 20.17293075 40.2898208 20.23046875 44.09765625 C20.22452099 46.53387509 20.21298892 48.97008803 20.1953125 51.40625 C20.22263962 53.0988092 20.22263962 53.0988092 20.2505188 54.82556152 C20.08418475 61.1074029 19.14007301 64.60347274 14.77294922 69.25195312 C11.34852494 72.47431074 9.15201127 73.54227611 4.4375 73.5625 C2.973125 73.376875 1.50875 73.19125 0 73 C0 68.71 0 64.42 0 60 C1.65 59.34 3.3 58.68 5 58 C5 43.81 5 29.62 5 15 C2.525 14.01 2.525 14.01 0 13 C0 8.71 0 4.42 0 0 Z " fill="#1C3A8A" transform="translate(350,195)"/>
<path d="M0 0 C0 4.29 0 8.58 0 13 C-1.65 13.66 -3.3 14.32 -5 15 C-5 29.19 -5 43.38 -5 58 C-3.35 58.66 -1.7 59.32 0 60 C0 64.29 0 68.58 0 73 C-8.38789881 74.1813942 -8.38789881 74.1813942 -12.46994019 71.18995667 C-18.80522334 64.45175572 -20.34656944 59.67128165 -20.1953125 50.52734375 C-20.20392303 49.36425186 -20.21253357 48.20115997 -20.22140503 47.00282288 C-20.22749658 44.55807073 -20.21111842 42.11316899 -20.17333984 39.66870117 C-20.1250558 35.94180696 -20.17297396 32.22464298 -20.23046875 28.49804688 C-20.22452172 26.1119578 -20.21299117 23.72587474 -20.1953125 21.33984375 C-20.21353058 20.23648178 -20.23174866 19.13311981 -20.2505188 17.99632263 C-20.08228449 11.78058156 -19.09077963 8.35953289 -14.77294922 3.76391602 C-9.91425071 -0.82273014 -6.47596428 -0.82089688 0 0 Z " fill="#1D3A89" transform="translate(345,195)"/>
<path d="M0 0 C3.3 0 6.6 0 10 0 C10.92372147 10.10050577 7.74175686 17.07639136 3.3125 25.875 C2.28416375 27.97690096 1.2635271 30.08243408 0.24304199 32.18815613 C-0.45490783 33.62687673 -1.15536408 35.06438402 -1.85827637 36.50068665 C-5.55159657 44.06301431 -8.97385727 51.74042707 -12.375 59.4375 C-13.44308363 61.85387072 -14.51363681 64.26908544 -15.5859375 66.68359375 C-16.0298584 67.68962646 -16.4737793 68.69565918 -16.93115234 69.73217773 C-18 72 -18 72 -19 73 C-22.33327842 73.1424478 -25.66453893 73.04222103 -29 73 C-30.27199995 62.94046956 -26.61888764 55.64061708 -22.25 46.9375 C-21.56583079 45.53529202 -20.88397359 44.13195377 -20.2043457 42.72753906 C-18.82157384 39.87339613 -17.42972447 37.02396459 -16.03173828 34.17724609 C-12.97203828 27.91963338 -10.08334067 21.58476452 -7.1875 15.25 C-6.2235819 13.15061641 -5.25881671 11.05162143 -4.29296875 8.953125 C-3.8961792 8.08848633 -3.49938965 7.22384766 -3.09057617 6.33300781 C-2.09585649 4.20506035 -1.05048824 2.10097647 0 0 Z " fill="#1D3B8B" transform="translate(479,195)"/>
<path d="M0 0 C4.62 0 9.24 0 14 0 C14.27972656 1.42183594 14.55945313 2.84367188 14.84765625 4.30859375 C17.63999236 18.42085886 20.56365831 32.50013477 23.58813477 46.56420898 C28 67.12899208 28 67.12899208 28 73 C23.71 73 19.42 73 15 73 C12.95493361 65.04100272 11.1444479 57.09129219 9.58984375 49.0234375 C9.27038536 47.38648422 9.27038536 47.38648422 8.94447327 45.71646118 C8.27251024 42.26987798 7.60488534 38.82247222 6.9375 35.375 C6.4866251 33.05723388 6.03545555 30.73952505 5.58398438 28.421875 C4.94636648 25.14842702 4.30913858 21.87491003 3.67430115 18.60092163 C2.47090997 12.39620145 1.24517887 6.19647511 0 0 Z " fill="#1F3D8C" transform="translate(375,195)"/>
<path d="M0 0 C4.02021084 2.36131343 7.64681561 4.85164151 9.7890625 9.046875 C10.54537114 14.64040766 10.55946861 19.38753877 8.1640625 24.546875 C3.90106926 29.0342363 -0.24755601 31.76193447 -6.4609375 32.359375 C-12.39841063 31.86458557 -16.27585766 29.37472562 -20.0859375 24.984375 C-23.28326492 20.56454004 -24.04217083 16.40689679 -23.2109375 11.046875 C-21.16677482 5.97771822 -18.1224378 2.07619076 -13.16015625 -0.32421875 C-8.59856406 -1.79599499 -4.43729159 -1.91289602 0 0 Z " fill="#ECF3F9" transform="translate(100.2109375,238.953125)"/>
<path d="M0 0 C4.29 0 8.58 0 13 0 C12.33074957 8.22410515 10.935496 16.19225962 9.34765625 24.28515625 C9.08468255 25.63607388 8.82186282 26.9870215 8.55918884 28.33799744 C8.01186245 31.14646971 7.46083975 33.95418703 6.9074707 36.76147461 C6.19784322 40.36448277 5.50056114 43.96976327 4.80626774 47.57575321 C4.26917054 50.35549077 3.72422843 53.13364644 3.17700005 55.91140556 C2.91626634 57.24137856 2.65833643 58.57190437 2.40324593 59.90297127 C2.04795824 61.75209667 1.68065789 63.59890195 1.31274414 65.44555664 C1.10702286 66.49683243 0.90130157 67.54810822 0.68934631 68.63124084 C0.34811989 69.80377663 0.34811989 69.80377663 0 71 C-0.99 71.495 -0.99 71.495 -2 72 C-2.81903545 68.02215014 -3.62902594 64.04250868 -4.4375 60.0625 C-4.66759766 58.94552734 -4.89769531 57.82855469 -5.13476562 56.67773438 C-5.78652981 53.45669687 -6.40431832 50.23184579 -7 47 C-7.22888916 45.81494873 -7.22888916 45.81494873 -7.46240234 44.60595703 C-8.48877303 38.06413983 -7.16284209 32.15504571 -5.75 25.75 C-5.40255737 24.09979858 -5.40255737 24.09979858 -5.0480957 22.41625977 C-4.38167189 19.27368475 -3.69593463 16.13615688 -3 13 C-2.73485596 11.80189697 -2.73485596 11.80189697 -2.46435547 10.57958984 C-1.67570854 7.04424768 -0.84707767 3.52205978 0 0 Z " fill="#1F3D8C" transform="translate(409,195)"/>
<path d="M0 0 C4.62 0 9.24 0 14 0 C14 14.19 14 28.38 14 43 C9.38 43 4.76 43 0 43 C0 28.81 0 14.62 0 0 Z " fill="#2A4691" transform="translate(497,195)"/>
<path d="M0 0 C4.29 0 8.58 0 13 0 C13 15.18 13 30.36 13 46 C8.71 46 4.42 46 0 46 C0 30.82 0 15.64 0 0 Z " fill="#18398D" transform="translate(176,195)"/>
<path d="M0 0 C4.29 0 8.58 0 13 0 C13 14.19 13 28.38 13 43 C8.71 43 4.42 43 0 43 C0 28.81 0 14.62 0 0 Z " fill="#203D8B" transform="translate(278,195)"/>
<path d="M0 0 C4.29 0 8.58 0 13 0 C13 11.22 13 22.44 13 34 C8.71 34 4.42 34 0 34 C0 22.78 0 11.56 0 0 Z " fill="#1C3A88" transform="translate(429,234)"/>
<path d="M0 0 C4.29 0 8.58 0 13 0 C13 11.22 13 22.44 13 34 C8.71 34 4.42 34 0 34 C0 22.78 0 11.56 0 0 Z " fill="#18388D" transform="translate(429,195)"/>
<path d="M0 0 C4.62 0 9.24 0 14 0 C14 8.58 14 17.16 14 26 C9.38 26 4.76 26 0 26 C0 17.42 0 8.84 0 0 Z " fill="#2D4992" transform="translate(497,242)"/>
<path d="M0 0 C1.70913373 3.41826747 1.18458479 7.23354763 1.1875 11 C1.19974609 11.83273437 1.21199219 12.66546875 1.22460938 13.5234375 C1.22750977 14.71839844 1.22750977 14.71839844 1.23046875 15.9375 C1.23457764 16.66839844 1.23868652 17.39929688 1.24291992 18.15234375 C1 20 1 20 -1 22 C-3.3828125 22.1953125 -3.3828125 22.1953125 -6.125 22.125 C-7.49011719 22.09792969 -7.49011719 22.09792969 -8.8828125 22.0703125 C-9.58148438 22.04710937 -10.28015625 22.02390625 -11 22 C-12.53445094 18.93109813 -11.54984289 16.29905734 -11 13 C-11.9075 13 -12.815 13 -13.75 13 C-16.16666667 13 -18.58333333 13 -21 13 C-21.52290845 9.93725048 -21.43601382 7.80015723 -19.93359375 5.04296875 C-14.53088473 -1.60547769 -7.97701085 -0.69702037 0 0 Z " fill="#1A398B" transform="translate(148,277)"/>
<path d="M0 0 C5.50064272 0.0914741 8.83971192 0.70403768 12.7109375 4.69921875 C14.50568671 7.6331882 14.27596858 10.18951012 13.8125 13.5 C10.8125 13.5 10.8125 13.5 8.25 12.875 C7.445625 12.75125 6.64125 12.6275 5.8125 12.5 C5.1525 13.16 4.4925 13.82 3.8125 14.5 C3.8125 15.82 3.8125 17.14 3.8125 18.5 C4.4725 18.83 5.1325 19.16 5.8125 19.5 C5.4825 20.49 5.1525 21.48 4.8125 22.5 C3.39626784 22.55447047 1.97941809 22.59300508 0.5625 22.625 C-0.62085938 22.65980469 -0.62085938 22.65980469 -1.828125 22.6953125 C-4.39481941 22.4828378 -5.9791067 21.78654105 -8.1875 20.5 C-8.24129226 17.54142591 -8.28107093 14.58382279 -8.3125 11.625 C-8.32925781 10.78324219 -8.34601562 9.94148438 -8.36328125 9.07421875 C-8.36972656 8.26855469 -8.37617187 7.46289062 -8.3828125 6.6328125 C-8.39852295 5.51737061 -8.39852295 5.51737061 -8.41455078 4.37939453 C-7.83761999 -0.39610357 -3.89989517 0.10770712 0 0 Z " fill="#1C3A8C" transform="translate(46.1875,276.5)"/>
<path d="M0 0 C4.29 0 8.58 0 13 0 C13 8.58 13 17.16 13 26 C8.71 26 4.42 26 0 26 C0 17.42 0 8.84 0 0 Z " fill="#22408C" transform="translate(278,242)"/>
<path d="M0 0 C2.99958211 2.02297398 4.76248221 3.74673092 6.6875 6.8125 C7.0175 8.7925 7.3475 10.7725 7.6875 12.8125 C-2.2125 12.8125 -12.1125 12.8125 -22.3125 12.8125 C-21.22701486 6.29958915 -20.05126497 4.0817624 -15.125 0 C-9.97782302 -2.1732525 -5.20759843 -1.86687491 0 0 Z " fill="#1C3A8A" transform="translate(124.3125,306.1875)"/>
<path d="M0 0 C4.29 0 8.58 0 13 0 C13 7.59 13 15.18 13 23 C8.71 23 4.42 23 0 23 C0 15.41 0 7.82 0 0 Z " fill="#18398B" transform="translate(176,245)"/>
<path d="M0 0 C3.92842352 2.06846929 6.29305525 4.20057117 8.02734375 8.28125 C8.02734375 9.60125 8.02734375 10.92125 8.02734375 12.28125 C-1.54265625 12.28125 -11.11265625 12.28125 -20.97265625 12.28125 C-19.84406749 5.50971745 -19.84406749 5.50971745 -16.59765625 2.96875 C-15.99179687 2.47761719 -15.3859375 1.98648437 -14.76171875 1.48046875 C-10.3949291 -1.44661514 -4.88158536 -1.77863704 0 0 Z " fill="#19398D" transform="translate(76.97265625,305.71875)"/>
<path d="M0 0 C6.27 0 12.54 0 19 0 C19 4.29 19 8.58 19 13 C11.08 13 3.16 13 -5 13 C-3 7 -3 7 0 0 Z " fill="#19388C" transform="translate(470,255)"/>
<path d="M0 0 C0.515625 0.2475 1.03125 0.495 1.5625 0.75 C0.0775 2.235 0.0775 2.235 -1.4375 3.75 C0.109375 3.6571875 0.109375 3.6571875 1.6875 3.5625 C5.79718973 3.76135595 8.05132496 4.69467803 11.5625 6.75 C11.5625 7.08 11.5625 7.41 11.5625 7.75 C10.51449219 7.79898438 9.46648437 7.84796875 8.38671875 7.8984375 C7.00778646 7.97348143 5.6288815 8.04902857 4.25 8.125 C3.21456055 8.17140625 3.21456055 8.17140625 2.15820312 8.21875 C-1.50740789 8.43124919 -3.31650792 8.66933861 -6.4375 10.75 C0.4925 11.08 7.4225 11.41 14.5625 11.75 C14.8925 13.07 15.2225 14.39 15.5625 15.75 C14.88147217 15.75410889 14.20044434 15.75821777 13.4987793 15.76245117 C10.41496794 15.79533323 7.33314674 15.86596953 4.25 15.9375 C3.17814453 15.94330078 2.10628906 15.94910156 1.00195312 15.95507812 C-0.02607422 15.98408203 -1.05410156 16.01308594 -2.11328125 16.04296875 C-3.06114502 16.0586792 -4.00900879 16.07438965 -4.9855957 16.09057617 C-7.69483154 16.53127999 -7.69483154 16.53127999 -9.14526367 19.29418945 C-9.57170166 20.10460693 -9.99813965 20.91502441 -10.4375 21.75 C-11.0975 21.75 -11.7575 21.75 -12.4375 21.75 C-14.22188576 16.39684273 -14.29607691 11.57018305 -11.875 6.4375 C-8.6771699 2.91168732 -5.07982436 -0.52100763 0 0 Z " fill="#F0F5FA" transform="translate(91.4375,238.25)"/>
<path d="M0 0 C7.26 0 14.52 0 22 0 C20 6 20 6 17 13 C11.39 13 5.78 13 0 13 C0 8.71 0 4.42 0 0 Z " fill="#1D3A87" transform="translate(452,195)"/>
<path d="M0 0 C3.63 0 7.26 0 11 0 C11 7.26 11 14.52 11 22 C7.37 22 3.74 22 0 22 C0 14.74 0 7.48 0 0 Z " fill="#19388D" transform="translate(135,253)"/>
<path d="M0 0 C5.94 0 11.88 0 18 0 C18 4.29 18 8.58 18 13 C12.06 13 6.12 13 0 13 C0 8.71 0 4.42 0 0 Z " fill="#203C89" transform="translate(515,255)"/>
<path d="M0 0 C5.94 0 11.88 0 18 0 C18 4.29 18 8.58 18 13 C12.06 13 6.12 13 0 13 C0 8.71 0 4.42 0 0 Z " fill="#1C3885" transform="translate(515,195)"/>
<path d="M0 0 C3.3 0 6.6 0 10 0 C10 6.6 10 13.2 10 20 C6.7 20 3.4 20 0 20 C0 13.4 0 6.8 0 0 Z " fill="#1A3889" transform="translate(42,254)"/>
<path d="M0 0 C1.89510699 -0.08160748 3.79124504 -0.13946459 5.6875 -0.1875 C6.74324219 -0.22230469 7.79898438 -0.25710937 8.88671875 -0.29296875 C12.4052765 0.03813769 14.23154621 0.82876293 17 3 C17.52642952 6.15857715 17.51567857 8.03310267 16 10.875 C12.74686316 12.70488947 9.68609891 12.18128355 6 12 C6 10.68 6 9.36 6 8 C4.02 8 2.04 8 0 8 C0 5.36 0 2.72 0 0 Z " fill="#3B5393" transform="translate(129,234)"/>
<path d="M0 0 C1.75570312 0.04060547 1.75570312 0.04060547 3.546875 0.08203125 C4.43890625 0.11683594 5.3309375 0.15164062 6.25 0.1875 C6.25 2.8275 6.25 5.4675 6.25 8.1875 C3.94 8.1875 1.63 8.1875 -0.75 8.1875 C-0.75 9.5075 -0.75 10.8275 -0.75 12.1875 C-7.1282235 12.54853152 -7.1282235 12.54853152 -9.6875 11.0625 C-11.27225401 8.26587528 -11.20947423 6.3381804 -10.75 3.1875 C-7.45958547 -0.24702027 -4.59644324 -0.1378933 0 0 Z " fill="#34509A" transform="translate(52.75,233.8125)"/>
<path d="M0 0 C3.25 1.875 3.25 1.875 6 4 C6.639375 4.474375 7.27875 4.94875 7.9375 5.4375 C8.288125 5.953125 8.63875 6.46875 9 7 C8.67 8.65 8.34 10.3 8 12 C-4.87 11.505 -4.87 11.505 -18 11 C-13.00034221 7.25025666 -11.02577427 6.82891291 -4.875 6.4375 C-3.59367187 6.35371094 -2.31234375 6.26992187 -0.9921875 6.18359375 C-0.00476563 6.12300781 0.98265625 6.06242188 2 6 C-2.01668054 4.29343106 -5.65636456 3.51101593 -10 3 C-9.67 2.01 -9.34 1.02 -9 0 C-5.81011624 -1.59494188 -3.42171253 -0.74137105 0 0 Z " fill="#F4F9FD" transform="translate(100,239)"/>
<path d="M0 0 C7.92 0 15.84 0 24 0 C20.62159091 6.75681818 20.62159091 6.75681818 17.86328125 7.8359375 C11.78659807 9.12013701 8.36316677 9.28357149 3 6 C0 2.80645161 0 2.80645161 0 0 Z " fill="#29448C" transform="translate(82,258)"/>
<path d="M0 0 C3.96 0 7.92 0 12 0 C12 4.29 12 8.58 12 13 C8.04 13 4.08 13 0 13 C0 8.71 0 4.42 0 0 Z " fill="#223C85" transform="translate(515,225)"/>
<path d="M0 0 C3.4375 1 3.4375 1 5.4375 2.75 C6.75115275 5.70571868 6.56864585 6.98361106 5.4375 10 C3.40531027 12.68539358 2.2411211 13.81918525 -1.0625 14.5625 C-3.5625 14 -3.5625 14 -5.875 11.8125 C-7.71206543 8.75072428 -8.276437 7.4804429 -7.5625 4 C-5.24958684 0.48437199 -4.25397332 0 0 0 Z " fill="#EBF1F7" transform="translate(107.5625,188)"/>
<path d="M0 0 C3.37013879 0.67402776 4.51677007 1.7087875 6.5 4.5 C7.0625 7.5 7.0625 7.5 6.5 10.5 C4.3125 12.9375 4.3125 12.9375 1.5 14.5 C-1.39481608 14.43107581 -2.90685358 13.88861317 -5.3125 12.3125 C-7.10972017 9.56937448 -6.95774125 7.70418874 -6.5 4.5 C-4.51677007 1.7087875 -3.37013879 0.67402776 0 0 Z " fill="#F1F6FA" transform="translate(84.5,187.5)"/>
<path d="M0 0 C4.29 0 8.58 0 13 0 C13 11.22 13 22.44 13 34 C8.71 34 4.42 34 0 34 C0 22.78 0 11.56 0 0 Z M2 2 C2 11.9 2 21.8 2 32 C4.97 32 7.94 32 11 32 C12.31775285 30.90812017 12.31775285 30.90812017 12.11352539 28.22436523 C12.10567017 26.40980835 12.10567017 26.40980835 12.09765625 24.55859375 C12.09443359 23.25341797 12.09121094 21.94824219 12.08789062 20.60351562 C12.07953401 19.2148431 12.07106905 17.82617123 12.0625 16.4375 C12.05748666 15.04492344 12.05292347 13.65234519 12.04882812 12.25976562 C12.03699434 8.8398013 12.0205088 5.41992156 12 2 C8.7 2 5.4 2 2 2 Z " fill="#213976" transform="translate(429,195)"/>
<path d="M0 0 C1.76996002 2.65494003 2.3868393 3.9667206 3.0703125 6.94140625 C3.24433594 7.68970703 3.41835937 8.43800781 3.59765625 9.20898438 C3.77167969 9.98564453 3.94570312 10.76230469 4.125 11.5625 C4.30675781 12.34302734 4.48851562 13.12355469 4.67578125 13.92773438 C6 19.69754464 6 19.69754464 6 22 C1.38 22 -3.24 22 -8 22 C-10.125 13.5 -10.125 13.5 -9 9 C-8.01 11.64 -7.02 14.28 -6 17 C-5.34 16.34 -4.68 15.68 -4 15 C-3.01 15 -2.02 15 -1 15 C-0.67 10.05 -0.34 5.1 0 0 Z " fill="#26428C" transform="translate(213,246)"/>
<path d="M0 0 C4.29 0 8.58 0 13 0 C13 15.18 13 30.36 13 46 C8.71 46 4.42 46 0 46 C0 30.82 0 15.64 0 0 Z M1 1 C1 15.19 1 29.38 1 44 C4.3 44 7.6 44 11 44 C12.11807977 29.66462009 12.09927377 15.37263512 12 1 C8.37 1 4.74 1 1 1 Z " fill="#273D78" transform="translate(176,195)"/>
<path d="M0 0 C2.31 0 4.62 0 7 0 C8.70913373 3.41826747 8.18458479 7.23354763 8.1875 11 C8.19974609 11.83273437 8.21199219 12.66546875 8.22460938 13.5234375 C8.22750977 14.71839844 8.22750977 14.71839844 8.23046875 15.9375 C8.23457764 16.66839844 8.23868652 17.39929688 8.24291992 18.15234375 C8 20 8 20 6 22 C3.6171875 22.1953125 3.6171875 22.1953125 0.875 22.125 C-0.49011719 22.09792969 -0.49011719 22.09792969 -1.8828125 22.0703125 C-2.58148438 22.04710937 -3.28015625 22.02390625 -4 22 C-5.53445094 18.93109813 -4.54984289 16.29905734 -4 13 C-4.9075 13 -5.815 13 -6.75 13 C-9.16666667 13 -11.58333333 13 -14 13 C-14.375 10.3125 -14.375 10.3125 -14 7 C-12.176017 4.93601924 -10.27236161 3.60958947 -8 2 C-7.01 3.485 -7.01 3.485 -6 5 C-6.99 5 -7.98 5 -9 5 C-9 5.66 -9 6.32 -9 7 C-8.34 7 -7.68 7 -7 7 C-7.33 7.99 -7.66 8.98 -8 10 C-6.02 10.66 -4.04 11.32 -2 12 C-1.875 18.75 -1.875 18.75 -3 21 C-0.03 20.67 2.94 20.34 6 20 C6 14.06 6 8.12 6 2 C4.35 2 2.7 2 1 2 C0.67 1.34 0.34 0.68 0 0 Z " fill="#283D7D" transform="translate(141,277)"/>
<path d="M0 0 C3.63 0 7.26 0 11 0 C11 7.26 11 14.52 11 22 C7.37 22 3.74 22 0 22 C0 14.74 0 7.48 0 0 Z M2 2 C2 7.94 2 13.88 2 20 C3.98 20 5.96 20 8 20 C9.44388571 18.78571012 9.44388571 18.78571012 9.09765625 15.18359375 C9.09098089 13.60153318 9.07901875 12.01948841 9.0625 10.4375 C9.05798828 9.63119141 9.05347656 8.82488281 9.04882812 7.99414062 C9.03700518 5.99606244 9.01906914 3.99802217 9 2 C6.69 2 4.38 2 2 2 Z " fill="#3B528C" transform="translate(135,253)"/>
<path d="M0 0 C0 5.28 0 10.56 0 16 C-5 15 -5 15 -7.375 12.8125 C-9 10 -9 10 -9.125 6.9375 C-7.59362189 2.9389016 -4.50415987 0 0 0 Z " fill="#2F488E" transform="translate(64,187)"/>
<path d="M0 0 C8.25 0 16.5 0 25 0 C25.33 1.32 25.66 2.64 26 4 C17.42 4 8.84 4 0 4 C0 2.68 0 1.36 0 0 Z " fill="#2E478B" transform="translate(81,250)"/>
<path d="M0 0 C6.40186916 2.56074766 6.40186916 2.56074766 8 5 C8.5 8.4375 8.5 8.4375 8 12 C5.6875 14.4375 5.6875 14.4375 3 16 C2.01 16 1.02 16 0 16 C0 10.72 0 5.44 0 0 Z " fill="#193A8F" transform="translate(124,187)"/>
<path d="M0 0 C3.46679688 0.04882812 3.46679688 0.04882812 6.93359375 0.09765625 C6.93359375 3.06765625 6.93359375 6.03765625 6.93359375 9.09765625 C6.60359375 8.43765625 6.27359375 7.77765625 5.93359375 7.09765625 C4.28359375 7.09765625 2.63359375 7.09765625 0.93359375 7.09765625 C0.60359375 8.74765625 0.27359375 10.39765625 -0.06640625 12.09765625 C-0.72640625 11.43765625 -1.38640625 10.77765625 -2.06640625 10.09765625 C-3.38640625 10.09765625 -4.70640625 10.09765625 -6.06640625 10.09765625 C-5.07640625 8.44765625 -4.08640625 6.79765625 -3.06640625 5.09765625 C-3.72640625 5.09765625 -4.38640625 5.09765625 -5.06640625 5.09765625 C-2.6606399 0.12573913 -2.6606399 0.12573913 0 0 Z " fill="#1A388B" transform="translate(238.06640625,194.90234375)"/>
<path d="M0 0 C4.29 0 8.58 0 13 0 C13 7.59 13 15.18 13 23 C8.71 23 4.42 23 0 23 C0.33 22.34 0.66 21.68 1 21 C3.9829661 20.40227901 6.96330805 20.25662185 10 20 C10.495 11.09 10.495 11.09 11 2 C7.7 2 4.4 2 1 2 C0.67 1.34 0.34 0.68 0 0 Z " fill="#2C437F" transform="translate(176,245)"/>
<path d="M0 0 C6.27 0 12.54 0 19 0 C19 4.29 19 8.58 19 13 C11.08 13 3.16 13 -5 13 C-3 7 -3 7 0 0 Z M1.125 2.390625 C-1.31034535 5.87452182 -2 7.61127503 -2 12 C4.27 12 10.54 12 17 12 C17 8.37 17 4.74 17 1 C14.72975032 0.91902676 12.45867925 0.86082296 10.1875 0.8125 C8.92292969 0.77769531 7.65835937 0.74289063 6.35546875 0.70703125 C3.06330149 0.6994273 3.06330149 0.6994273 1.125 2.390625 Z " fill="#364D88" transform="translate(470,255)"/>
<path d="M0 0 C1.67542976 0.28604898 3.34385343 0.61781233 5 1 C5.33 2.65 5.66 4.3 6 6 C5.01 6.33 4.02 6.66 3 7 C3 12.94 3 18.88 3 25 C2.34 25 1.68 25 1 25 C0.95101562 23.79601562 0.90203125 22.59203125 0.8515625 21.3515625 C0.77653657 19.77601802 0.70098867 18.20049834 0.625 16.625 C0.57859375 15.43390625 0.57859375 15.43390625 0.53125 14.21875 C0.48183579 9.63332625 0.48183579 9.63332625 -2 6 C-1.44444444 1.44444444 -1.44444444 1.44444444 0 0 Z " fill="#2C427F" transform="translate(92,144)"/>
<path d="M0 0 C1.8871875 0.0309375 1.8871875 0.0309375 3.8125 0.0625 C3.8125 0.7225 3.8125 1.3825 3.8125 2.0625 C2.760625 2.000625 1.70875 1.93875 0.625 1.875 C-3.51068632 2.07839441 -4.98436068 2.5337058 -8.1875 5.0625 C-9.8375 7.0425 -11.4875 9.0225 -13.1875 11.0625 C-4.9375 11.3925 3.3125 11.7225 11.8125 12.0625 C11.4825 10.0825 11.1525 8.1025 10.8125 6.0625 C12.3125 7.3125 12.3125 7.3125 13.8125 9.0625 C13.8125 10.3825 13.8125 11.7025 13.8125 13.0625 C4.2425 13.0625 -5.3275 13.0625 -15.1875 13.0625 C-14.05891124 6.29096745 -14.05891124 6.29096745 -10.8125 3.75 C-10.20664062 3.25886719 -9.60078125 2.76773437 -8.9765625 2.26171875 C-5.99960065 0.26624432 -3.48203792 -0.05708259 0 0 Z " fill="#273D7F" transform="translate(71.1875,304.9375)"/>
<path d="M0 0 C1.27617188 0.02320313 2.55234375 0.04640625 3.8671875 0.0703125 C5.78917969 0.09738281 5.78917969 0.09738281 7.75 0.125 C9.23113281 0.15980469 9.23113281 0.15980469 10.7421875 0.1953125 C10.7421875 2.1753125 10.7421875 4.1553125 10.7421875 6.1953125 C9.4221875 6.1953125 8.1021875 6.1953125 6.7421875 6.1953125 C6.7421875 4.5453125 6.7421875 2.8953125 6.7421875 1.1953125 C3.30425411 1.37661065 3.30425411 1.37661065 -0.2578125 2.1953125 C-1.77075538 4.13128282 -1.77075538 4.13128282 -2.2578125 6.1953125 C-1.2678125 6.1953125 -0.2778125 6.1953125 0.7421875 6.1953125 C0.7421875 7.1853125 0.7421875 8.1753125 0.7421875 9.1953125 C1.7321875 9.5253125 2.7221875 9.8553125 3.7421875 10.1953125 C4.0721875 9.2053125 4.4021875 8.2153125 4.7421875 7.1953125 C4.7421875 8.5153125 4.7421875 9.8353125 4.7421875 11.1953125 C-1.636036 11.55634402 -1.636036 11.55634402 -4.1953125 10.0703125 C-5.73919526 7.34581351 -5.5845232 5.26639305 -5.2578125 2.1953125 C-3.2578125 0.1953125 -3.2578125 0.1953125 0 0 Z " fill="#253E84" transform="translate(47.2578125,234.8046875)"/>
<path d="M0 0 C1.65 1.32 3.3 2.64 5 4 C4.56157941 8.82262646 3.6182281 10.82034501 0 14 C-0.99 15.485 -0.99 15.485 -2 17 C-2.66 17 -3.32 17 -4 17 C-4.33 17.66 -4.66 18.32 -5 19 C-5 18.01 -5 17.02 -5 16 C-5.99 15.67 -6.98 15.34 -8 15 C-8 18.3 -8 21.6 -8 25 C-8.33 25 -8.66 25 -9 25 C-9 21.04 -9 17.08 -9 13 C-7.865625 12.855625 -6.73125 12.71125 -5.5625 12.5625 C-2.19222799 12.38828522 -2.19222799 12.38828522 -1 11 C-0.76636119 9.15108054 -0.58696365 7.29511969 -0.4375 5.4375 C-0.35371094 4.42558594 -0.26992188 3.41367188 -0.18359375 2.37109375 C-0.12300781 1.58863281 -0.06242187 0.80617187 0 0 Z " fill="#1C3883" transform="translate(305,242)"/>
<path d="M0 0 C9.57 0 19.14 0 29 0 C29 6.6 29 13.2 29 20 C31.64 19.34 34.28 18.68 37 18 C37 18.66 37 19.32 37 20 C37.99 20.33 38.98 20.66 40 21 C39.37351563 21.13277344 38.74703125 21.26554687 38.1015625 21.40234375 C37.28429687 21.57894531 36.46703125 21.75554687 35.625 21.9375 C34.81289062 22.11152344 34.00078125 22.28554688 33.1640625 22.46484375 C30.970537 22.92330693 30.970537 22.92330693 29 24 C28.03911617 21.11734851 27.88329059 19.32337729 27.90234375 16.33203125 C27.90484131 15.52741455 27.90733887 14.72279785 27.90991211 13.89379883 C27.91901611 12.87697021 27.92812012 11.8601416 27.9375 10.8125 C27.958125 7.574375 27.97875 4.33625 28 1 C18.76 1 9.52 1 0 1 C0 0.67 0 0.34 0 0 Z " fill="#CEDAF2" transform="translate(79,284)"/>
<path d="M0 0 C2.26979665 -0.10794277 4.54105196 -0.18556176 6.8125 -0.25 C8.07707031 -0.29640625 9.34164063 -0.3428125 10.64453125 -0.390625 C14 0 14 0 15.94921875 2.015625 C16.29597656 2.67046875 16.64273437 3.3253125 17 4 C15.35 4.66 13.7 5.32 12 6 C11.34 4.68 10.68 3.36 10 2 C7.36 2 4.72 2 2 2 C2 5.3 2 8.6 2 12 C4.31 12 6.62 12 9 12 C8.67 12.66 8.34 13.32 8 14 C5.36 13.67 2.72 13.34 0 13 C0 8.71 0 4.42 0 0 Z " fill="#2C407C" transform="translate(295,195)"/>
<path d="M0 0 C2.83829868 1.65079178 4.99946943 3.38144314 7 6 C7.98334294 10.13720573 7.81653875 14.16595054 7.68359375 18.3984375 C7.67368912 19.58853424 7.66378448 20.77863098 7.65357971 22.00479126 C7.6144766 25.79612813 7.52665049 29.58454212 7.4375 33.375 C7.4023814 35.94917687 7.37044338 38.52339923 7.34179688 41.09765625 C7.26472735 47.39943033 7.14767455 53.69950635 7 60 C6.67 60 6.34 60 6 60 C6.00079559 59.34711502 6.00159119 58.69423004 6.00241089 58.02156067 C6.00484925 51.22409773 5.96566725 44.42777708 5.90234375 37.63061523 C5.88417908 35.09421089 5.87661606 32.55770751 5.87988281 30.02124023 C5.88273831 26.37405701 5.84743533 22.7289299 5.8046875 19.08203125 C5.81378143 17.94852737 5.82287537 16.8150235 5.83224487 15.64717102 C5.88874802 10.04932663 5.88874802 10.04932663 3.61090088 5.14193726 C1.82392156 3.56141508 1.82392156 3.56141508 -1 2 C-0.67 1.34 -0.34 0.68 0 0 Z " fill="#203977" transform="translate(262,198)"/>
<path d="M0 0 C0.66 0.33 1.32 0.66 2 1 C1.21625 1.763125 0.4325 2.52625 -0.375 3.3125 C-3.07257717 5.90891805 -3.07257717 5.90891805 -5 9 C-5.99 9 -6.98 9 -8 9 C-8 10.32 -8 11.64 -8 13 C1.24 13 10.48 13 20 13 C20 13.33 20 13.66 20 14 C10.1 14 0.2 14 -10 14 C-9.04118476 8.24710854 -8.80167397 6.90727602 -5 3 C-2.375 1.125 -2.375 1.125 0 0 Z " fill="#5E6FA2" transform="translate(112,305)"/>
<path d="M0 0 C4.29 0 8.58 0 13 0 C13 1.65 13 3.3 13 5 C8.71 5 4.42 5 0 5 C0 3.35 0 1.7 0 0 Z " fill="#E0EAF2" transform="translate(429,229)"/>
<path d="M0 0 C3.5 1.5 3.5 1.5 6 3 C6 3.33 6 3.66 6 4 C0.06 4 -5.88 4 -12 4 C-12 3.34 -12 2.68 -12 2 C-8.27254949 -0.48496701 -4.32419492 -0.57158898 0 0 Z " fill="#4D6298" transform="translate(97,242)"/>
<path d="M0 0 C0.99 0.99 1.98 1.98 3 3 C2.01 3 1.02 3 0 3 C0 3.66 0 4.32 0 5 C0.66 5 1.32 5 2 5 C1.67 5.99 1.34 6.98 1 8 C1.99 8.66 2.98 9.32 4 10 C2.68942607 10.36122881 1.37646376 10.71380311 0.0625 11.0625 C-0.66839844 11.25972656 -1.39929688 11.45695312 -2.15234375 11.66015625 C-2.76207031 11.77230469 -3.37179688 11.88445312 -4 12 C-5 11 -5 11 -5.375 8.25 C-4.88549712 4.00764168 -3.18164293 2.70439649 0 0 Z " fill="#233F88" transform="translate(132,279)"/>
<path d="M0 0 C1.65 0 3.3 0 5 0 C5 0.66 5 1.32 5 2 C5.66 2 6.32 2 7 2 C7 3.32 7 4.64 7 6 C3.91190305 7.76462683 2.76687864 8 -1 8 C-1.33 6.02 -1.66 4.04 -2 2 C-1.34 2 -0.68 2 0 2 C0 1.34 0 0.68 0 0 Z " fill="#1A3A8C" transform="translate(139,237)"/>
<path d="M0 0 C0.33 0 0.66 0 1 0 C1.02505615 1.28165039 1.0501123 2.56330078 1.07592773 3.88378906 C1.17011595 8.6399125 1.2703089 13.39589379 1.37231445 18.15185547 C1.41562009 20.21008987 1.45729829 22.26835918 1.49731445 24.32666016 C1.55512275 27.28558879 1.61878696 30.2443424 1.68359375 33.203125 C1.70030624 34.12305237 1.71701874 35.04297974 1.73423767 35.99078369 C1.75418289 36.8513739 1.77412811 37.71196411 1.79467773 38.59863281 C1.81022202 39.35364075 1.8257663 40.10864868 1.84178162 40.88653564 C2.00185633 43.02479671 2.41816368 44.93989084 3 47 C2.01 46.34 1.02 45.68 0 45 C-0.36076355 43.05111694 -0.36076355 43.05111694 -0.34057617 40.64208984 C-0.34034958 39.74130707 -0.34012299 38.84052429 -0.33988953 37.91244507 C-0.32440567 36.93844757 -0.30892181 35.96445007 -0.29296875 34.9609375 C-0.28872391 33.96494537 -0.28447906 32.96895325 -0.28010559 31.94277954 C-0.2632768 28.75324775 -0.22561676 25.56434167 -0.1875 22.375 C-0.1724586 20.21615494 -0.15876925 18.0573 -0.14648438 15.8984375 C-0.11335967 10.59874388 -0.06311896 5.29941663 0 0 Z " fill="#1F3A7F" transform="translate(227,214)"/>
<path d="M0 0 C6.40186916 2.56074766 6.40186916 2.56074766 8 5 C8.1875 8.6875 8.1875 8.6875 8 12 C7.01 12.495 7.01 12.495 6 13 C5.67 12.01 5.34 11.02 5 10 C5.66 10 6.32 10 7 10 C6.28254644 7.53770003 6.28254644 7.53770003 5 5 C3.68 4.34 2.36 3.68 1 3 C1 6.3 1 9.6 1 13 C2.32 13 3.64 13 5 13 C5 13.66 5 14.32 5 15 C3.35 15.33 1.7 15.66 0 16 C0 10.72 0 5.44 0 0 Z " fill="#2C417F" transform="translate(124,187)"/>
<path d="M0 0 C2.475 0.495 2.475 0.495 5 1 C4.34 1.66 3.68 2.32 3 3 C2.54188325 4.97235333 2.54188325 4.97235333 2.375 7.125 C2.25125 8.40375 2.1275 9.6825 2 11 C3.423125 11.1546875 3.423125 11.1546875 4.875 11.3125 C8 12 8 12 10 15 C6.38970831 15 3.44193324 14.03907418 0 13 C0 8.71 0 4.42 0 0 Z " fill="#354887" transform="translate(295,225)"/>
<path d="M0 0 C1.10370043 3.3111013 0.92673641 5.24748949 0.5625 8.6875 C0.40974609 10.17830078 0.40974609 10.17830078 0.25390625 11.69921875 C0.12822266 12.83810547 0.12822266 12.83810547 0 14 C2.31 14.66 4.62 15.32 7 16 C7 16.33 7 16.66 7 17 C3.7 17 0.4 17 -3 17 C-3.55353075 5.47835991 -3.55353075 5.47835991 0 0 Z " fill="#425995" transform="translate(453,251)"/>
<path d="M0 0 C4.29 0 8.58 0 13 0 C12.67 1.32 12.34 2.64 12 4 C11.67 3.67 11.34 3.34 11 3 C8.67182036 2.63239269 6.3381615 2.29758419 4 2 C4 3.98 4 5.96 4 8 C3.34 8 2.68 8 2 8 C1.34 5.36 0.68 2.72 0 0 Z " fill="#1F397C" transform="translate(376,195)"/>
<path d="M0 0 C0.33 0 0.66 0 1 0 C1.93244834 3.76382434 2.49743194 7.13453928 2 11 C-0.58271931 14.05135789 -3.54479809 16.02656109 -7 18 C-7.66 17.67 -8.32 17.34 -9 17 C-8.236875 16.46375 -7.47375 15.9275 -6.6875 15.375 C-1.75533125 11.01633925 -0.64083795 6.40837949 0 0 Z " fill="#253F83" transform="translate(111,251)"/>
<path d="M0 0 C1.485 0.99 1.485 0.99 3 2 C3.29296875 5.2578125 3.29296875 5.2578125 3.1875 9.125 C3.16042969 10.40632812 3.13335937 11.68765625 3.10546875 13.0078125 C3.07066406 13.99523437 3.03585938 14.98265625 3 16 C3.66 16.33 4.32 16.66 5 17 C3.35 17 1.7 17 0 17 C0 11.39 0 5.78 0 0 Z " fill="#C6D1ED" transform="translate(121,187)"/>
<path d="M0 0 C0.33 0 0.66 0 1 0 C1.33 3.63 1.66 7.26 2 11 C3.65 10.01 5.3 9.02 7 8 C7.33 11.63 7.66 15.26 8 19 C6 16 6 16 6 13 C4.02 13 2.04 13 0 13 C0 8.71 0 4.42 0 0 Z " fill="#455D96" transform="translate(193,228)"/>
<path d="M0 0 C1.60875 -0.061875 3.2175 -0.12375 4.875 -0.1875 C5.77992188 -0.22230469 6.68484375 -0.25710937 7.6171875 -0.29296875 C8.79667969 -0.14794922 8.79667969 -0.14794922 10 0 C10.66 0.99 11.32 1.98 12 3 C8.37 2.67 4.74 2.34 1 2 C1 5.63 1 9.26 1 13 C0.67 13 0.34 13 0 13 C0 8.71 0 4.42 0 0 Z " fill="#2A3F7C" transform="translate(250,195)"/>
<path d="M0 0 C3.96 0 7.92 0 12 0 C11.25 9.5 11.25 9.5 9 14 C9.33 10.04 9.66 6.08 10 2 C6.7 2 3.4 2 0 2 C0 1.34 0 0.68 0 0 Z " fill="#253A78" transform="translate(410,195)"/>
<path d="M0 0 C2.31 0 4.62 0 7 0 C7 0.66 7 1.32 7 2 C6.34 2.66 5.68 3.32 5 4 C5 4.66 5 5.32 5 6 C3.35 6 1.7 6 0 6 C0 4.02 0 2.04 0 0 Z " fill="#193982" transform="translate(130,235)"/>
<path d="M0 0 C4.29 0 8.58 0 13 0 C13 1.98 13 3.96 13 6 C11.68 6 10.36 6 9 6 C9 4.35 9 2.7 9 1 C6.03 1 3.06 1 0 1 C0 0.67 0 0.34 0 0 Z " fill="#1C3980" transform="translate(45,235)"/>
<path d="M0 0 C7.51953125 -0.390625 7.51953125 -0.390625 10 0 C11.82421875 2.015625 11.82421875 2.015625 13 4 C11.68 4 10.36 4 9 4 C8.67 3.34 8.34 2.68 8 2 C5.67843403 1.59270772 3.3431213 1.25561323 1 1 C1 4.96 1 8.92 1 13 C0.67 13 0.34 13 0 13 C0 8.71 0 4.42 0 0 Z " fill="#273C77" transform="translate(350,195)"/>
<path d="M0 0 C3.70986572 -0.28783441 7.29998705 -0.45251957 11 0 C13.6875 2.5 13.6875 2.5 15 5 C14.195625 4.690625 13.39125 4.38125 12.5625 4.0625 C8.37750913 2.81434483 4.33693899 2.3662304 0 2 C0 1.34 0 0.68 0 0 Z " fill="#1E387C" transform="translate(42,277)"/>
<path d="M0 0 C0.66 0 1.32 0 2 0 C2 0.66 2 1.32 2 2 C5.3 2 8.6 2 12 2 C12 2.33 12 2.66 12 3 C9.36 3 6.72 3 4 3 C4.33 4.65 4.66 6.3 5 8 C3.68 8 2.36 8 1 8 C0.67 5.36 0.34 2.72 0 0 Z " fill="#E3EEF5" transform="translate(59,282)"/>
<path d="M0 0 C2.375 -0.125 2.375 -0.125 5 0 C7 2 7 2 7.1953125 4.6015625 C7.17210937 5.59929687 7.14890625 6.59703125 7.125 7.625 C7.10695313 8.62789062 7.08890625 9.63078125 7.0703125 10.6640625 C7.03550781 11.82035156 7.03550781 11.82035156 7 13 C6.67 13 6.34 13 6 13 C5.90203125 12.30132812 5.8040625 11.60265625 5.703125 10.8828125 C5.55359375 9.97273437 5.4040625 9.06265625 5.25 8.125 C5.11078125 7.22007812 4.9715625 6.31515625 4.828125 5.3828125 C4.22016157 2.83785757 4.22016157 2.83785757 1.921875 1.6796875 C1.28765625 1.45539063 0.6534375 1.23109375 0 1 C0 0.67 0 0.34 0 0 Z " fill="#D6E0F3" transform="translate(298,208)"/>
<path d="M0 0 C2 3.875 2 3.875 2 5 C-2.29 5 -6.58 5 -11 5 C-10.67 4.34 -10.34 3.68 -10 3 C-7.67711188 2.60689586 -5.38154824 2.49250305 -3.03125 2.34375 C-2.02578125 2.17359375 -2.02578125 2.17359375 -1 2 C-0.67 1.34 -0.34 0.68 0 0 Z " fill="#3B4D93" transform="translate(187,263)"/>
<path d="M0 0 C1.32 1.32 2.64 2.64 4 4 C3.67 4.99 3.34 5.98 3 7 C1.54207116 7.05399736 0.08357288 7.09279177 -1.375 7.125 C-2.18710937 7.14820313 -2.99921875 7.17140625 -3.8359375 7.1953125 C-6 7 -6 7 -8 5 C-5.36 5.33 -2.72 5.66 0 6 C0 4.02 0 2.04 0 0 Z " fill="#2D467D" transform="translate(48,292)"/>
<path d="M0 0 C0.33 0 0.66 0 1 0 C1.33 3.3 1.66 6.6 2 10 C3.32 10 4.64 10 6 10 C6 11.32 6 12.64 6 14 C4.125 13.8125 4.125 13.8125 2 13 C-0.53124675 8.82344286 -0.16019214 4.72566806 0 0 Z " fill="#DAE4F4" transform="translate(77,250)"/>
<path d="M0 0 C1.74325447 2.6148817 2.41587957 4.0053433 3.125 6.9375 C3.29257813 7.60652344 3.46015625 8.27554688 3.6328125 8.96484375 C4 11 4 11 4 15 C3.34 15 2.68 15 2 15 C0.2520497 9.75614911 -0.19392201 5.52677733 0 0 Z " fill="#3B5290" transform="translate(213,246)"/>
<path d="M0 0 C0.33 0 0.66 0 1 0 C1 1.65 1 3.3 1 5 C-2.63423209 7.32590854 -5.77088331 7.16265833 -10 7 C-10 6.01 -10 5.02 -10 4 C-8.9171875 4.4021875 -8.9171875 4.4021875 -7.8125 4.8125 C-6.4203125 4.9053125 -6.4203125 4.9053125 -5 5 C-2.22877725 2.64573501 -2.22877725 2.64573501 0 0 Z " fill="#2C4386" transform="translate(91,196)"/>
<path d="M0 0 C0.99 0 1.98 0 3 0 C3 1.98 3 3.96 3 6 C1.35 6.33 -0.3 6.66 -2 7 C-1.34 4.69 -0.68 2.38 0 0 Z " fill="#234090" transform="translate(74,296)"/>
<path d="M0 0 C2.31 1.98 4.62 3.96 7 6 C5.68 6.99 4.36 7.98 3 9 C2.34 8.34 1.68 7.68 1 7 C1.375 4.875 1.375 4.875 2 3 C1.34 3 0.68 3 0 3 C0 2.01 0 1.02 0 0 Z " fill="#354B91" transform="translate(209,197)"/>
<path d="M0 0 C1.23556641 0.01740234 1.23556641 0.01740234 2.49609375 0.03515625 C3.32238281 0.04417969 4.14867187 0.05320313 5 0.0625 C5.63808594 0.07410156 6.27617187 0.08570313 6.93359375 0.09765625 C6.60359375 0.75765625 6.27359375 1.41765625 5.93359375 2.09765625 C3.94077618 2.354794 1.94529514 2.60601777 -0.05859375 2.75390625 C-2.37622874 3.0107398 -2.37622874 3.0107398 -5.06640625 5.09765625 C-2.6606399 0.12573913 -2.6606399 0.12573913 0 0 Z " fill="#203778" transform="translate(238.06640625,194.90234375)"/>
<path d="M0 0 C1.4800841 0.11362262 2.95910074 0.24122908 4.4375 0.375 C5.26121094 0.44460937 6.08492188 0.51421875 6.93359375 0.5859375 C7.95646484 0.79089844 7.95646484 0.79089844 9 1 C9.33 1.66 9.66 2.32 10 3 C7.03 3 4.06 3 1 3 C0.67 2.01 0.34 1.02 0 0 Z " fill="#223B84" transform="translate(91,242)"/>
<path d="M0 0 C0.66 0 1.32 0 2 0 C1.01 2.97 0.02 5.94 -1 9 C-1.66 8.34 -2.32 7.68 -3 7 C-2.67028521 3.70285207 -2.3773161 2.3773161 0 0 Z " fill="#263F86" transform="translate(479,221)"/>
<path d="M0 0 C1.11375 0.1546875 1.11375 0.1546875 2.25 0.3125 C0.5625 2.8125 0.5625 2.8125 -1.75 5.3125 C-4.5 5.625 -4.5 5.625 -6.75 5.3125 C-3.42692308 0.38942308 -3.42692308 0.38942308 0 0 Z " fill="#324B8E" transform="translate(233.75,198.6875)"/>
<path d="M0 0 C-0.5859375 6.15234375 -0.5859375 6.15234375 -1 8 C-1.99 8.495 -1.99 8.495 -3 9 C-3.33 6.36 -3.66 3.72 -4 1 C-2 0 -2 0 0 0 Z " fill="#4B5D8E" transform="translate(410,258)"/>
<path d="M0 0 C1.67542976 0.28604898 3.34385343 0.61781233 5 1 C4.01 2.98 3.02 4.96 2 7 C1.34 7 0.68 7 0 7 C-0.38133299 5.0085944 -0.71325582 3.00720923 -1 1 C-0.67 0.67 -0.34 0.34 0 0 Z " fill="#F9FEFB" transform="translate(79,253)"/>
<path d="M0 0 C2.8125 -0.25 2.8125 -0.25 6 0 C7.875 2 7.875 2 9 4 C7.35 4.66 5.7 5.32 4 6 C3.896875 5.38125 3.79375 4.7625 3.6875 4.125 C3.12474627 1.63473516 3.12474627 1.63473516 0 0 Z " fill="#2F4686" transform="translate(303,195)"/>
<path d="M0 0 C0 1.65 0 3.3 0 5 C-3.38023517 5 -5.83468937 4.12544378 -9 3 C-9 2.67 -9 2.34 -9 2 C-7.68786298 1.66524067 -6.37527913 1.33223233 -5.0625 1 C-3.96615234 0.7215625 -3.96615234 0.7215625 -2.84765625 0.4375 C-1 0 -1 0 0 0 Z " fill="#1F387D" transform="translate(60,285)"/>
<path d="M0 0 C0.58265625 0.36867187 1.1653125 0.73734375 1.765625 1.1171875 C0.31057142 1.64711442 -1.14855627 2.1658664 -2.609375 2.6796875 C-3.82753906 3.11474609 -3.82753906 3.11474609 -5.0703125 3.55859375 C-7.234375 4.1171875 -7.234375 4.1171875 -9.234375 3.1171875 C-2.784375 -1.10012019 -2.784375 -1.10012019 0 0 Z " fill="#2E4587" transform="translate(81.234375,173.8828125)"/>
<path d="M0 0 C2.5625 0.25 2.5625 0.25 5 1 C5.33 1.66 5.66 2.32 6 3 C4.35 2.67 2.7 2.34 1 2 C-0.32 3.65 -1.64 5.3 -3 7 C-2.25 2.25 -2.25 2.25 0 0 Z " fill="#C1D2E9" transform="translate(52,288)"/>
<path d="M0 0 C0.33 1.32 0.66 2.64 1 4 C3.64 4 6.28 4 9 4 C9 4.33 9 4.66 9 5 C7.68942607 5.36122881 6.37646376 5.71380311 5.0625 6.0625 C4.33160156 6.25972656 3.60070312 6.45695312 2.84765625 6.66015625 C2.23792969 6.77230469 1.62820312 6.88445312 1 7 C0 6 0 6 -0.0625 2.9375 C-0.041875 1.968125 -0.02125 0.99875 0 0 Z " fill="#6D7CA9" transform="translate(127,284)"/>
<path d="M0 0 C1.65 0.33 3.3 0.66 5 1 C4.67 1.99 4.34 2.98 4 4 C1.9375 4.6875 1.9375 4.6875 0 5 C0 3.33333333 0 1.66666667 0 0 Z " fill="#294595" transform="translate(55,282)"/>
<path d="M0 0 C1.4540625 0.0309375 1.4540625 0.0309375 2.9375 0.0625 C2.6075 1.0525 2.2775 2.0425 1.9375 3.0625 C-0.3725 3.0625 -2.6825 3.0625 -5.0625 3.0625 C-3.56765464 0.07280928 -3.56765464 0.07280928 0 0 Z " fill="#1E3D84" transform="translate(259.0625,263.9375)"/>
<path d="M0 0 C-1.32 1.32 -2.64 2.64 -4 4 C-4.99 3.67 -5.98 3.34 -7 3 C-6.67 2.01 -6.34 1.02 -6 0 C-3.50907189 -1.24546405 -2.58919267 -0.7767578 0 0 Z " fill="#E4ECF7" transform="translate(93,239)"/>
<path d="M0 0 C-2.91708924 1.98362069 -4.12380904 1.9876191 -7.75 1.625 C-8.8225 1.41875 -9.895 1.2125 -11 1 C-7.2297564 -1.56376565 -4.32597804 -0.83191885 0 0 Z " fill="#D9E9F6" transform="translate(79,304)"/>
<path d="M0 0 C2.31 0 4.62 0 7 0 C7.33 0.66 7.66 1.32 8 2 C5.23735711 2.59732819 2.83967231 3 0 3 C0 2.01 0 1.02 0 0 Z " fill="#193A90" transform="translate(517,227)"/>
</svg>
